<mxfile host="app.diagrams.net" modified="2021-09-26T14:27:43.654Z" agent="5.0 (Windows NT 10.0; Win64; x64) AppleWebKit/537.36 (KHTML, like Gecko) Chrome/93.0.4577.82 Safari/537.36" etag="sQHM-92Myc_aiBIQgXYW" version="15.1.4" type="github">
  <diagram id="cDPh0-9Ec-bW2iWhmRZM" name="Page-1">
    <mxGraphModel dx="1328" dy="802" grid="1" gridSize="10" guides="1" tooltips="1" connect="1" arrows="1" fold="1" page="1" pageScale="1" pageWidth="827" pageHeight="1169" math="0" shadow="0">
      <root>
        <mxCell id="0" />
        <mxCell id="1" parent="0" />
        <mxCell id="ivwRy5lz7lQ9c-eDE7po-1" value="" style="rounded=1;whiteSpace=wrap;html=1;fillColor=#f5f5f5;strokeColor=#666666;fontColor=#333333;" vertex="1" parent="1">
          <mxGeometry x="80" y="240" width="630" height="100" as="geometry" />
        </mxCell>
        <mxCell id="ivwRy5lz7lQ9c-eDE7po-2" value="" style="edgeStyle=orthogonalEdgeStyle;rounded=0;orthogonalLoop=1;jettySize=auto;html=1;" edge="1" parent="1" source="ivwRy5lz7lQ9c-eDE7po-3" target="ivwRy5lz7lQ9c-eDE7po-4">
          <mxGeometry relative="1" as="geometry" />
        </mxCell>
        <mxCell id="ivwRy5lz7lQ9c-eDE7po-3" value="when: &lt;br&gt;current time" style="rounded=1;whiteSpace=wrap;html=1;fillColor=#dae8fc;strokeColor=#6c8ebf;" vertex="1" parent="1">
          <mxGeometry x="110" y="260" width="120" height="60" as="geometry" />
        </mxCell>
        <mxCell id="ivwRy5lz7lQ9c-eDE7po-4" value="when:&lt;br&gt;cuttent + 500 ms" style="rounded=1;whiteSpace=wrap;html=1;fillColor=#dae8fc;strokeColor=#6c8ebf;" vertex="1" parent="1">
          <mxGeometry x="260" y="260" width="120" height="60" as="geometry" />
        </mxCell>
        <mxCell id="ivwRy5lz7lQ9c-eDE7po-5" value="" style="edgeStyle=orthogonalEdgeStyle;rounded=0;orthogonalLoop=1;jettySize=auto;html=1;dashed=1;" edge="1" parent="1" target="ivwRy5lz7lQ9c-eDE7po-8">
          <mxGeometry relative="1" as="geometry">
            <mxPoint x="380" y="290" as="sourcePoint" />
          </mxGeometry>
        </mxCell>
        <mxCell id="ivwRy5lz7lQ9c-eDE7po-6" value="&lt;span&gt;when:&lt;/span&gt;&lt;br&gt;&lt;span&gt;cuttent + 1500 ms&lt;/span&gt;" style="rounded=1;whiteSpace=wrap;html=1;fillColor=#dae8fc;strokeColor=#6c8ebf;" vertex="1" parent="1">
          <mxGeometry x="570" y="260" width="120" height="60" as="geometry" />
        </mxCell>
        <mxCell id="ivwRy5lz7lQ9c-eDE7po-7" value="" style="edgeStyle=orthogonalEdgeStyle;rounded=0;orthogonalLoop=1;jettySize=auto;html=1;dashed=1;" edge="1" parent="1" source="ivwRy5lz7lQ9c-eDE7po-8" target="ivwRy5lz7lQ9c-eDE7po-6">
          <mxGeometry relative="1" as="geometry" />
        </mxCell>
        <mxCell id="ivwRy5lz7lQ9c-eDE7po-8" value="" style="rounded=1;whiteSpace=wrap;html=1;opacity=20;" vertex="1" parent="1">
          <mxGeometry x="416" y="260" width="120" height="60" as="geometry" />
        </mxCell>
        <mxCell id="ivwRy5lz7lQ9c-eDE7po-9" value="" style="edgeStyle=orthogonalEdgeStyle;rounded=0;orthogonalLoop=1;jettySize=auto;html=1;fillColor=#f8cecc;strokeColor=#b85450;" edge="1" parent="1" source="ivwRy5lz7lQ9c-eDE7po-10" target="ivwRy5lz7lQ9c-eDE7po-8">
          <mxGeometry relative="1" as="geometry" />
        </mxCell>
        <mxCell id="ivwRy5lz7lQ9c-eDE7po-10" value="delayed&amp;nbsp;&lt;br&gt;1000 ms" style="rounded=1;whiteSpace=wrap;html=1;fillColor=#d5e8d4;strokeColor=#82b366;" vertex="1" parent="1">
          <mxGeometry x="416" y="140" width="120" height="60" as="geometry" />
        </mxCell>
      </root>
    </mxGraphModel>
  </diagram>
</mxfile>
